# xmcd
#
# Track frame offsets: 
#        150
#        12520
#        30652
#        43338
#        54337
#        69116
#        89438
#        103354
#        122569
#        134758
#        147934
#        161726
#        199443
#
# Disc length: 2851 seconds
#
# Revision: 5
# Processed by: cddbd v1.5.2PL0 Copyright (c) Steve Scherf et al.
# Submitted via: ExactAudioCopy v0.99pb3
#
DISCID=c30b210d
DTITLE=The Beatles - White Album [CD2)
DYEAR=1998
DGENRE=Pop
TTITLE0=Birthday
TTITLE1=Yer Blues
TTITLE2=Mother Nature's Son
TTITLE3=Everybody's Got Something To Hide Except Me And My Monkey
TTITLE4=Sexy Sadie
TTITLE5=Helter Skelter
TTITLE6=Long, Long, Long
TTITLE7=Revolution 1
TTITLE8=Honey Pie
TTITLE9=Savoy Truffle
TTITLE10=Cry Baby Cry
TTITLE11=Revolution 9
TTITLE12=Good Night
EXTD=YEAR: 1998
EXTT0=
EXTT1=
EXTT2=
EXTT3=
EXTT4=
EXTT5=
EXTT6=
EXTT7=
EXTT8=
EXTT9=
EXTT10=
EXTT11=
EXTT12=
PLAYORDER=
